# xmcd
#
# Track frame offsets: 
#        150
#        18244
#        39090
#        59390
#        80663
#        99274
#        118386
#        137884
#        158788
#        179114
#        197582
#        222973
#        241607
#        262550
#        279836
#
# Disc length: 4025 seconds
#
# Revision: 1
# Processed by: cddbd v1.5.2PL0 Copyright (c) Steve Scherf et al.
# Submitted via: ExactAudioCopyFreeDBPlugin 1.0
#
DISCID=c40fb70f
DTITLE=群星 - TEST-CD试音极品14CDA
DYEAR=2013
DGENRE=stereo
TTITLE0=草原情
TTITLE1=天边的骆驼
TTITLE2=马头琴的传说
TTITLE3=爱过的姑娘
TTITLE4=梦中情人
TTITLE5=唐古拉
TTITLE6=鸿燕
TTITLE7=唱首情歌给草原
TTITLE8=水中月亮
TTITLE9=游牧情歌
TTITLE10=天上西藏
TTITLE11=坐上火车去拉萨
TTITLE12=我们好好爱
TTITLE13=梦回喜马拉雅
TTITLE14=回来吧,我的心上人
EXTD=
EXTT0=
EXTT1=
EXTT2=
EXTT3=
EXTT4=
EXTT5=
EXTT6=
EXTT7=
EXTT8=
EXTT9=
EXTT10=
EXTT11=
EXTT12=
EXTT13=
EXTT14=
PLAYORDER=
